<?xml version="1.0" standalone="no"?>
<!DOCTYPE svg PUBLIC "-//W3C//DTD SVG 20010904//EN"
 "http://www.w3.org/TR/2001/REC-SVG-20010904/DTD/svg10.dtd">
<svg version="1.0" xmlns="http://www.w3.org/2000/svg"
 width="1000.000000pt" height="300.000000pt" viewBox="0 0 1000.000000 300.000000"
 preserveAspectRatio="xMidYMid meet">

<g transform="translate(0.000000,300.000000) scale(0.100000,-0.100000)"
fill="#000000" stroke="none">
<path d="M0 1500 l0 -1500 5000 0 5000 0 0 1500 0 1500 -5000 0 -5000 0 0
-1500z m4925 627 c19 -16 26 -30 23 -47 -3 -25 -3 -25 -18 5 -8 17 -25 34 -38
40 -12 5 -22 13 -22 17 0 16 29 7 55 -15z m-146 -77 c30 -44 56 -80 58 -80 2
0 0 25 -3 55 -6 50 -5 55 12 55 15 0 26 -20 52 -88 18 -48 32 -99 32 -113 0
-66 -89 -137 -155 -125 -48 9 -84 43 -146 137 -48 73 -51 83 -36 93 11 8 14
20 10 36 -4 15 -1 27 9 34 9 6 17 20 20 31 2 13 12 20 27 20 14 0 26 6 29 13
10 30 41 7 91 -68z m85 66 c39 -16 66 -51 66 -83 0 -34 -14 -28 -25 10 -7 23
-21 38 -52 53 -23 12 -39 24 -36 28 8 8 9 8 47 -8z m-3814 -37 c0 -14 -5 -19
-17 -17 -26 5 -29 38 -4 38 15 0 21 -6 21 -21z m310 -35 c0 -55 0 -55 22 -40
31 22 74 20 98 -4 17 -17 20 -33 20 -110 0 -83 -1 -90 -20 -90 -18 0 -20 7
-20 83 0 88 -8 107 -46 107 -35 0 -47 -26 -52 -111 -3 -58 -8 -79 -18 -79 -11
0 -14 30 -14 150 0 127 2 150 15 150 12 0 15 -13 15 -56z m1990 35 c0 -25 -33
-22 -38 4 -2 12 3 17 17 17 15 0 21 -6 21 -21z m290 -36 c0 -54 1 -55 18 -40
19 18 68 22 89 9 21 -13 33 -62 33 -138 0 -67 -2 -74 -20 -74 -18 0 -20 7 -20
76 0 87 -11 114 -45 114 -39 0 -55 -35 -55 -117 0 -66 -2 -73 -20 -73 -19 0
-20 7 -20 150 0 143 1 150 20 150 18 0 20 -7 20 -57z m670 -93 c0 -143 -1
-150 -20 -150 -19 0 -20 7 -20 150 0 143 1 150 20 150 19 0 20 -7 20 -150z
m-3540 70 l0 -60 75 0 75 0 0 60 c0 53 2 60 20 60 19 0 20 -7 20 -140 0 -133
-1 -140 -20 -140 -18 0 -20 7 -20 65 l0 65 -75 0 -75 0 0 -65 c0 -58 -2 -65
-20 -65 -19 0 -20 7 -20 140 0 133 1 140 20 140 18 0 20 -7 20 -60z m1630 -80
c0 -133 -1 -140 -20 -140 -19 0 -20 7 -20 140 0 133 1 140 20 140 19 0 20 -7
20 -140z m90 95 c0 -33 -4 -45 -15 -45 -9 0 -15 9 -15 23 0 12 -3 32 -6 45 -5
18 -2 22 15 22 18 0 21 -6 21 -45z m579 -36 c17 -45 34 -92 37 -105 3 -13 9
-26 13 -28 4 -3 24 45 46 105 38 103 42 109 68 109 l27 0 0 -140 c0 -133 -1
-140 -20 -140 -18 0 -20 8 -22 106 l-3 106 -39 -106 c-29 -81 -42 -106 -54
-104 -10 2 -32 44 -59 113 l-42 110 -1 -112 c0 -94 -3 -113 -15 -113 -13 0
-15 22 -15 140 l0 140 24 0 c21 0 28 -11 55 -81z m-1811 43 c2 -14 11 -22 23
-22 25 0 25 -20 -1 -27 -18 -5 -20 -14 -20 -84 0 -72 2 -79 20 -79 11 0 20 -7
20 -15 0 -18 -50 -21 -68 -3 -7 7 -12 44 -12 94 0 64 -3 83 -15 88 -19 7 -19
26 0 26 8 0 17 11 21 25 7 30 28 28 32 -3z m-208 -132 c0 -103 -1 -110 -20
-110 -19 0 -20 7 -20 110 0 103 1 110 20 110 19 0 20 -7 20 -110z m645 88 c15
-14 28 -38 32 -60 l6 -38 -77 0 c-64 0 -76 -3 -76 -17 0 -46 66 -69 102 -36
15 13 21 14 31 4 19 -20 -27 -51 -75 -51 -30 0 -46 7 -69 29 -25 25 -29 37
-29 81 0 44 4 56 29 81 37 37 88 39 126 7z m115 10 c0 -9 3 -9 12 0 20 20 48
15 48 -9 0 -11 -4 -18 -10 -14 -5 3 -18 -3 -30 -15 -17 -17 -20 -33 -20 -95 0
-68 -2 -75 -20 -75 -19 0 -20 7 -20 110 0 103 1 110 20 110 11 0 20 -5 20 -12z
m245 -13 c17 -16 25 -35 25 -60 l0 -35 -76 0 c-74 0 -75 -1 -68 -22 3 -13 11
-29 16 -35 15 -18 58 -16 79 3 11 10 25 14 36 9 16 -6 15 -9 -10 -31 -33 -28
-91 -32 -124 -9 -49 34 -53 136 -8 181 34 34 97 33 130 -1z m515 8 c0 -15 1
-15 18 0 23 21 75 22 92 2 11 -13 15 -13 33 0 32 22 73 19 91 -7 12 -16 16
-47 16 -110 0 -81 -2 -88 -20 -88 -18 0 -20 7 -20 79 0 94 -5 111 -34 111 -38
0 -46 -19 -46 -107 0 -76 -2 -83 -20 -83 -18 0 -20 7 -20 84 0 88 -10 111 -47
104 -28 -5 -43 -47 -43 -120 0 -54 -3 -68 -15 -68 -12 0 -15 19 -15 110 0 91
3 110 15 110 8 0 15 -7 15 -17z m780 -93 c0 -103 -1 -110 -20 -110 -19 0 -20
7 -20 110 0 103 1 110 20 110 19 0 20 -7 20 -110z m196 85 c25 -25 25 -45 -1
-45 -8 0 -19 9 -25 20 -13 24 -52 26 -71 3 -8 -9 -14 -37 -14 -63 0 -26 6 -54
14 -63 19 -23 58 -21 73 3 13 21 48 28 48 10 0 -24 -50 -60 -82 -60 -44 0 -74
22 -88 66 -36 109 71 204 146 129z m422 9 c19 -13 22 -24 22 -90 0 -57 4 -76
15 -80 25 -10 17 -34 -10 -34 -17 0 -28 7 -33 21 l-8 20 -18 -20 c-23 -25 -78
-28 -100 -5 -22 22 -20 77 4 99 10 9 40 20 65 23 40 4 46 8 43 26 -4 27 -65
36 -74 12 -8 -20 -44 -21 -44 -2 0 23 41 46 80 46 20 0 46 -7 58 -16z m227 -6
c15 -14 28 -38 32 -60 l6 -38 -77 0 c-64 0 -76 -3 -76 -17 0 -46 66 -69 102
-36 15 13 21 14 31 4 19 -20 -27 -51 -75 -51 -30 0 -46 7 -69 29 -25 25 -29
37 -29 81 0 44 4 56 29 81 37 37 88 39 126 7z m410 -140 c7 -24 21 -39 53 -55
45 -23 45 -35 -1 -26 -34 7 -77 56 -77 89 0 34 14 30 25 -8z m-2428 -24 c7
-19 -9 -76 -22 -81 -6 -2 -11 20 -12 47 -2 39 1 50 13 50 8 0 17 -7 21 -16z
m2405 -24 c6 -19 19 -32 34 -36 26 -7 33 -24 10 -24 -25 0 -66 41 -66 66 0 33
9 30 22 -6z m-1417 -239 c45 -20 104 -86 89 -100 -5 -5 -25 -14 -45 -20 -35
-11 -38 -10 -72 24 -31 31 -41 35 -86 35 -29 0 -65 -7 -81 -15 -84 -43 -92
-216 -14 -285 30 -26 43 -30 92 -30 79 0 126 24 130 68 l3 32 -60 0 -61 0 0
40 0 40 105 0 106 0 -3 -97 -3 -98 -68 -34 c-61 -32 -76 -35 -150 -35 -95 0
-144 20 -195 78 -41 47 -55 104 -50 197 7 123 67 197 178 220 50 11 137 1 185
-20z m1280 5 c32 -14 75 -66 75 -92 0 -7 -20 -15 -45 -19 -42 -6 -48 -4 -74
24 -23 25 -37 31 -69 31 -67 0 -92 -14 -92 -52 0 -41 16 -52 106 -73 98 -23
150 -48 168 -84 20 -38 20 -103 1 -140 -43 -83 -262 -105 -345 -34 -30 25 -66
81 -57 89 2 2 25 8 50 13 45 8 48 7 60 -18 16 -34 77 -55 134 -46 49 7 73 27
73 60 0 35 -39 59 -128 78 -98 21 -143 50 -160 101 -26 80 15 147 105 172 56
16 147 11 198 -10z m-3355 -26 l0 -40 -75 0 -75 0 0 -205 0 -205 -55 0 -55 0
0 205 0 205 -75 0 -75 0 0 40 0 40 205 0 205 0 0 -40z m160 -55 l0 -95 100 0
100 0 0 95 0 95 55 0 55 0 0 -245 0 -245 -55 0 -55 0 0 105 0 105 -100 0 -100
0 0 -105 0 -105 -55 0 -55 0 0 245 0 245 55 0 55 0 0 -95z m780 55 l0 -40
-140 0 -140 0 0 -60 0 -60 130 0 130 0 0 -40 0 -40 -130 0 -130 0 0 -65 0 -65
145 0 145 0 0 -40 0 -40 -195 0 -195 0 0 245 0 245 190 0 190 0 0 -40z m420
18 c34 -17 48 -32 59 -61 19 -51 2 -109 -38 -133 l-29 -17 42 -21 c98 -50 73
-194 -40 -225 -21 -6 -103 -11 -181 -11 l-143 0 0 245 0 245 143 0 c128 0 147
-2 187 -22z m270 -223 l0 -245 -50 0 -50 0 0 245 0 245 50 0 50 0 0 -245z
m819 118 c22 -71 46 -150 54 -177 l14 -49 26 84 c14 46 38 126 54 177 l28 92
67 0 68 0 0 -245 0 -245 -45 0 -45 0 0 183 -1 182 -34 -110 c-19 -60 -45 -143
-57 -183 l-22 -73 -40 3 -40 3 -23 75 c-13 41 -39 125 -58 185 l-34 110 -1
-187 0 -188 -45 0 -45 0 0 245 0 245 69 0 70 0 40 -127z m511 -118 l0 -245
-55 0 -55 0 0 245 0 245 55 0 55 0 0 -245z m660 150 l0 -95 105 0 105 0 0 95
0 95 50 0 50 0 0 -245 0 -245 -50 0 -50 0 0 105 0 105 -105 0 -105 0 0 -105 0
-105 -50 0 -50 0 0 245 0 245 50 0 50 0 0 -95z m678 68 c54 -150 162 -455 162
-459 0 -2 -22 -4 -49 -4 l-50 0 -22 60 -22 60 -92 0 -92 0 -18 -60 -18 -60
-53 0 -53 0 45 128 c26 70 65 180 88 244 l41 118 62 0 c58 0 62 -2 71 -27z"/>
<path d="M1596 1974 c-31 -31 -20 -44 39 -44 59 0 63 4 39 38 -18 26 -56 29
-78 6z"/>
<path d="M1953 1978 c-30 -39 -24 -48 32 -48 46 0 55 3 55 18 0 10 -5 23 -12
30 -16 16 -63 15 -75 0z"/>
<path d="M3876 1897 c-11 -8 -17 -23 -14 -38 7 -51 88 -26 88 28 0 19 -5 23
-28 23 -16 0 -36 -6 -46 -13z"/>
<path d="M4096 1974 c-31 -31 -20 -44 39 -44 59 0 63 4 39 38 -18 26 -56 29
-78 6z"/>
<path d="M2220 1450 l0 -60 73 0 c89 0 117 15 117 65 0 45 -20 55 -114 55
l-76 0 0 -60z"/>
<path d="M2220 1245 l0 -65 90 0 c100 0 130 15 130 65 0 50 -30 65 -130 65
l-90 0 0 -65z"/>
<path d="M5283 1395 l-31 -95 64 0 c35 0 64 3 64 7 0 13 -52 168 -59 175 -4 4
-21 -35 -38 -87z"/>
</g>
</svg>
